<svg width="799" height="34" viewBox="0 0 799 34" fill="none" xmlns="http://www.w3.org/2000/svg">
<line y1="-0.5" x2="46.669" y2="-0.5" transform="matrix(-0.707107 0.707107 0.707107 0.707107 799 1)" stroke="white" stroke-opacity="0.8"/>
<line y1="-0.5" x2="46.669" y2="-0.5" transform="matrix(-0.707107 0.707107 0.707107 0.707107 782 1)" stroke="white" stroke-opacity="0.8"/>
<line y1="-0.5" x2="46.669" y2="-0.5" transform="matrix(-0.707107 0.707107 0.707107 0.707107 765 1)" stroke="white" stroke-opacity="0.8"/>
<line y1="-0.5" x2="46.669" y2="-0.5" transform="matrix(-0.707107 0.707107 0.707107 0.707107 748 1)" stroke="white" stroke-opacity="0.8"/>
<line y1="-0.5" x2="46.669" y2="-0.5" transform="matrix(-0.707107 0.707107 0.707107 0.707107 731 1)" stroke="white" stroke-opacity="0.8"/>
<line y1="-0.5" x2="46.669" y2="-0.5" transform="matrix(-0.707107 0.707107 0.707107 0.707107 714 1)" stroke="white" stroke-opacity="0.8"/>
<line y1="-0.5" x2="46.669" y2="-0.5" transform="matrix(-0.707107 0.707107 0.707107 0.707107 697 1)" stroke="white" stroke-opacity="0.8"/>
<line y1="-0.5" x2="46.669" y2="-0.5" transform="matrix(-0.707107 0.707107 0.707107 0.707107 680 1)" stroke="white" stroke-opacity="0.8"/>
<line y1="-0.5" x2="46.669" y2="-0.5" transform="matrix(-0.707107 0.707107 0.707107 0.707107 663 1)" stroke="white" stroke-opacity="0.8"/>
<line y1="-0.5" x2="46.669" y2="-0.5" transform="matrix(-0.707107 0.707107 0.707107 0.707107 646 1)" stroke="white" stroke-opacity="0.8"/>
<line y1="-0.5" x2="46.669" y2="-0.5" transform="matrix(-0.707107 0.707107 0.707107 0.707107 629 1)" stroke="white" stroke-opacity="0.8"/>
<line y1="-0.5" x2="46.669" y2="-0.5" transform="matrix(-0.707107 0.707107 0.707107 0.707107 612 1)" stroke="white" stroke-opacity="0.8"/>
<line y1="-0.5" x2="46.669" y2="-0.5" transform="matrix(-0.707107 0.707107 0.707107 0.707107 595 1)" stroke="white" stroke-opacity="0.8"/>
<line y1="-0.5" x2="46.669" y2="-0.5" transform="matrix(-0.707107 0.707107 0.707107 0.707107 578 1)" stroke="white" stroke-opacity="0.8"/>
<line y1="-0.5" x2="46.669" y2="-0.5" transform="matrix(-0.707107 0.707107 0.707107 0.707107 561 1)" stroke="white" stroke-opacity="0.8"/>
<line y1="-0.5" x2="46.669" y2="-0.5" transform="matrix(-0.707107 0.707107 0.707107 0.707107 544 1)" stroke="white" stroke-opacity="0.8"/>
<line y1="-0.5" x2="46.669" y2="-0.5" transform="matrix(-0.707107 0.707107 0.707107 0.707107 527 1)" stroke="white" stroke-opacity="0.8"/>
<line y1="-0.5" x2="46.669" y2="-0.5" transform="matrix(-0.707107 0.707107 0.707107 0.707107 510 1)" stroke="white" stroke-opacity="0.8"/>
<line y1="-0.5" x2="46.669" y2="-0.5" transform="matrix(-0.707107 0.707107 0.707107 0.707107 493 1)" stroke="white" stroke-opacity="0.8"/>
<line y1="-0.5" x2="46.669" y2="-0.5" transform="matrix(-0.707107 0.707107 0.707107 0.707107 476 1)" stroke="white" stroke-opacity="0.8"/>
<line y1="-0.5" x2="46.669" y2="-0.5" transform="matrix(-0.707107 0.707107 0.707107 0.707107 459 1)" stroke="white" stroke-opacity="0.8"/>
<line y1="-0.5" x2="46.669" y2="-0.5" transform="matrix(-0.707107 0.707107 0.707107 0.707107 442 1)" stroke="white" stroke-opacity="0.8"/>
<line y1="-0.5" x2="46.669" y2="-0.5" transform="matrix(-0.707107 0.707107 0.707107 0.707107 425 1)" stroke="white" stroke-opacity="0.8"/>
<line y1="-0.5" x2="46.669" y2="-0.5" transform="matrix(-0.707107 0.707107 0.707107 0.707107 408 1)" stroke="white" stroke-opacity="0.8"/>
<line y1="-0.5" x2="46.669" y2="-0.5" transform="matrix(-0.707107 0.707107 0.707107 0.707107 391 1)" stroke="white" stroke-opacity="0.8"/>
<line y1="-0.5" x2="46.669" y2="-0.5" transform="matrix(-0.707107 0.707107 0.707107 0.707107 374 1)" stroke="white" stroke-opacity="0.8"/>
<line y1="-0.5" x2="46.669" y2="-0.5" transform="matrix(-0.707107 0.707107 0.707107 0.707107 357 1)" stroke="white" stroke-opacity="0.8"/>
<line y1="-0.5" x2="46.669" y2="-0.5" transform="matrix(-0.707107 0.707107 0.707107 0.707107 340 1)" stroke="white" stroke-opacity="0.8"/>
<line y1="-0.5" x2="46.669" y2="-0.5" transform="matrix(-0.707107 0.707107 0.707107 0.707107 323 1)" stroke="white" stroke-opacity="0.8"/>
<line y1="-0.5" x2="46.669" y2="-0.5" transform="matrix(-0.707107 0.707107 0.707107 0.707107 306 1)" stroke="white" stroke-opacity="0.8"/>
<line y1="-0.5" x2="46.669" y2="-0.5" transform="matrix(-0.707107 0.707107 0.707107 0.707107 289 1)" stroke="white" stroke-opacity="0.8"/>
<line y1="-0.5" x2="46.669" y2="-0.5" transform="matrix(-0.707107 0.707107 0.707107 0.707107 272 1)" stroke="white" stroke-opacity="0.8"/>
<line y1="-0.5" x2="46.669" y2="-0.5" transform="matrix(-0.707107 0.707107 0.707107 0.707107 255 1)" stroke="white" stroke-opacity="0.8"/>
<line y1="-0.5" x2="46.669" y2="-0.5" transform="matrix(-0.707107 0.707107 0.707107 0.707107 238 1)" stroke="white" stroke-opacity="0.8"/>
<line y1="-0.5" x2="46.669" y2="-0.5" transform="matrix(-0.707107 0.707107 0.707107 0.707107 221 1)" stroke="white" stroke-opacity="0.8"/>
<line y1="-0.5" x2="46.669" y2="-0.5" transform="matrix(-0.707107 0.707107 0.707107 0.707107 204 1)" stroke="white" stroke-opacity="0.8"/>
<line y1="-0.5" x2="46.669" y2="-0.5" transform="matrix(-0.707107 0.707107 0.707107 0.707107 187 1)" stroke="white" stroke-opacity="0.8"/>
<line y1="-0.5" x2="46.669" y2="-0.5" transform="matrix(-0.707107 0.707107 0.707107 0.707107 170 1)" stroke="white" stroke-opacity="0.8"/>
<line y1="-0.5" x2="46.669" y2="-0.5" transform="matrix(-0.707107 0.707107 0.707107 0.707107 153 1)" stroke="white" stroke-opacity="0.8"/>
<line y1="-0.5" x2="46.669" y2="-0.5" transform="matrix(-0.707107 0.707107 0.707107 0.707107 136 1)" stroke="white" stroke-opacity="0.8"/>
<line y1="-0.5" x2="46.669" y2="-0.5" transform="matrix(-0.707107 0.707107 0.707107 0.707107 119 1)" stroke="white" stroke-opacity="0.8"/>
<line y1="-0.5" x2="46.669" y2="-0.5" transform="matrix(-0.707107 0.707107 0.707107 0.707107 102 1)" stroke="white" stroke-opacity="0.8"/>
<line y1="-0.5" x2="46.669" y2="-0.5" transform="matrix(-0.707107 0.707107 0.707107 0.707107 85 1)" stroke="white" stroke-opacity="0.8"/>
<line y1="-0.5" x2="46.669" y2="-0.5" transform="matrix(-0.707107 0.707107 0.707107 0.707107 68 1)" stroke="white" stroke-opacity="0.8"/>
<line y1="-0.5" x2="46.669" y2="-0.5" transform="matrix(-0.707107 0.707107 0.707107 0.707107 51 1)" stroke="white" stroke-opacity="0.8"/>
<line y1="-0.5" x2="46.669" y2="-0.5" transform="matrix(-0.707107 0.707107 0.707107 0.707107 34 1)" stroke="white" stroke-opacity="0.8"/>
</svg>
